<svg width="20" height="20" viewBox="0 0 20 20" fill="none" xmlns="http://www.w3.org/2000/svg">
<path d="M9.99935 18.3337C14.6017 18.3337 18.3327 14.6027 18.3327 10.0003C18.3327 5.39795 14.6017 1.66699 9.99935 1.66699C5.39698 1.66699 1.66602 5.39795 1.66602 10.0003C1.66602 14.6027 5.39698 18.3337 9.99935 18.3337Z" stroke="#1E2125" stroke-width="1.66667" stroke-linecap="round" stroke-linejoin="round"/>
<path d="M13.3327 6.66699H8.33268C7.89065 6.66699 7.46673 6.84259 7.15417 7.15515C6.84161 7.46771 6.66602 7.89163 6.66602 8.33366C6.66602 8.77569 6.84161 9.19961 7.15417 9.51217C7.46673 9.82473 7.89065 10.0003 8.33268 10.0003H11.666C12.108 10.0003 12.532 10.1759 12.8445 10.4885C13.1571 10.801 13.3327 11.225 13.3327 11.667C13.3327 12.109 13.1571 12.5329 12.8445 12.8455C12.532 13.1581 12.108 13.3337 11.666 13.3337H6.66602" stroke="#1E2125" stroke-width="1.66667" stroke-linecap="round" stroke-linejoin="round"/>
<path d="M10 15V5" stroke="#1E2125" stroke-width="1.66667" stroke-linecap="round" stroke-linejoin="round"/>
</svg>
