<svg width="32" height="32" viewBox="0 0 32 32" fill="none" xmlns="http://www.w3.org/2000/svg">
<path d="M21.332 21.3334L25.332 10.6667L29.332 21.3334C28.172 22.2001 26.772 22.6667 25.332 22.6667C23.892 22.6667 22.492 22.2001 21.332 21.3334Z" stroke="#827717" stroke-width="2.66667" stroke-linecap="round" stroke-linejoin="round"/>
<path d="M2.66797 21.3334L6.66797 10.6667L10.668 21.3334C9.50797 22.2001 8.10797 22.6667 6.66797 22.6667C5.22797 22.6667 3.82797 22.2001 2.66797 21.3334Z" stroke="#827717" stroke-width="2.66667" stroke-linecap="round" stroke-linejoin="round"/>
<path d="M9.33203 28H22.6654" stroke="#827717" stroke-width="2.66667" stroke-linecap="round" stroke-linejoin="round"/>
<path d="M16 4V28" stroke="#827717" stroke-width="2.66667" stroke-linecap="round" stroke-linejoin="round"/>
<path d="M4 9.33341H6.66667C9.33333 9.33341 13.3333 8.00008 16 6.66675C18.6667 8.00008 22.6667 9.33341 25.3333 9.33341H28" stroke="#827717" stroke-width="2.66667" stroke-linecap="round" stroke-linejoin="round"/>
</svg>
