<svg width="24" height="24" viewBox="0 0 24 24" fill="none" xmlns="http://www.w3.org/2000/svg">
<path d="M11.9987 5.99767V1.99902H8" stroke="white" stroke-width="1.99933" stroke-linecap="round" stroke-linejoin="round"/>
<path d="M7.99865 17.994L4 21.9926V7.99737C4 7.46712 4.21064 6.95858 4.58559 6.58364C4.96053 6.20869 5.46907 5.99805 5.99933 5.99805H17.9953C18.5255 5.99805 19.0341 6.20869 19.409 6.58364C19.784 6.95858 19.9946 7.46712 19.9946 7.99737V15.9947C19.9946 16.5249 19.784 17.0335 19.409 17.4084C19.0341 17.7834 18.5255 17.994 17.9953 17.994H7.99865Z" stroke="white" stroke-width="1.99933" stroke-linecap="round" stroke-linejoin="round"/>
<path d="M2 11.9961H4" stroke="white" stroke-width="1.99933" stroke-linecap="round" stroke-linejoin="round"/>
<path d="M9 10.9961V12.9961" stroke="white" stroke-width="1.99933" stroke-linecap="round" stroke-linejoin="round"/>
<path d="M14.9922 10.9961V12.9961" stroke="white" stroke-width="1.99933" stroke-linecap="round" stroke-linejoin="round"/>
<path d="M19.9922 11.9961H21.9922" stroke="white" stroke-width="1.99933" stroke-linecap="round" stroke-linejoin="round"/>
</svg>
