<svg width="32" height="32" viewBox="0 0 32 32" fill="none" xmlns="http://www.w3.org/2000/svg">
<path d="M21.334 21.3334L25.334 10.6667L29.334 21.3334C28.174 22.2001 26.774 22.6667 25.334 22.6667C23.894 22.6667 22.494 22.2001 21.334 21.3334Z" stroke="#1E2125" stroke-width="2.66667" stroke-linecap="round" stroke-linejoin="round"/>
<path d="M2.66602 21.3334L6.66602 10.6667L10.666 21.3334C9.50602 22.2001 8.10602 22.6667 6.66602 22.6667C5.22602 22.6667 3.82602 22.2001 2.66602 21.3334Z" stroke="#1E2125" stroke-width="2.66667" stroke-linecap="round" stroke-linejoin="round"/>
<path d="M9.33398 28H22.6673" stroke="#1E2125" stroke-width="2.66667" stroke-linecap="round" stroke-linejoin="round"/>
<path d="M16 4V28" stroke="#1E2125" stroke-width="2.66667" stroke-linecap="round" stroke-linejoin="round"/>
<path d="M4 9.33341H6.66667C9.33333 9.33341 13.3333 8.00008 16 6.66675C18.6667 8.00008 22.6667 9.33341 25.3333 9.33341H28" stroke="#1E2125" stroke-width="2.66667" stroke-linecap="round" stroke-linejoin="round"/>
</svg>
