<svg width="18" height="20" viewBox="0 0 18 20" fill="none" xmlns="http://www.w3.org/2000/svg">
<path d="M11.2497 3.5H4.49995C4.10214 3.5 3.72062 3.65803 3.43933 3.93933C3.15803 4.22062 3 4.60214 3 4.99995V16.9996C3 17.3974 3.15803 17.7789 3.43933 18.0602C3.72062 18.3415 4.10214 18.4995 4.49995 18.4995H13.4997C13.8975 18.4995 14.279 18.3415 14.5603 18.0602C14.8416 17.7789 14.9996 17.3974 14.9996 16.9996V7.24988L11.2497 3.5Z" stroke="#5B8DEE" stroke-width="1.49995" stroke-linecap="round" stroke-linejoin="round"/>
<path d="M10.5 3.5V6.4999C10.5 6.89771 10.658 7.27923 10.9393 7.56053C11.2206 7.84182 11.6021 7.99985 12 7.99985H14.9999" stroke="#5B8DEE" stroke-width="1.49995" stroke-linecap="round" stroke-linejoin="round"/>
<path d="M7.49995 8.75H6" stroke="#5B8DEE" stroke-width="1.49995" stroke-linecap="round" stroke-linejoin="round"/>
<path d="M11.9998 11.7495H6" stroke="#5B8DEE" stroke-width="1.49995" stroke-linecap="round" stroke-linejoin="round"/>
<path d="M11.9998 14.7495H6" stroke="#5B8DEE" stroke-width="1.49995" stroke-linecap="round" stroke-linejoin="round"/>
</svg>
