<svg width="18" height="18" viewBox="0 0 18 18" fill="none" xmlns="http://www.w3.org/2000/svg">
<g clip-path="url(#clip0_1593_332)">
<path d="M9.16581 1.49988H8.83584C8.43806 1.49988 8.05656 1.6579 7.77528 1.93918C7.49401 2.22045 7.33598 2.60195 7.33598 2.99974V3.13472C7.33571 3.39774 7.26628 3.65607 7.13466 3.88378C7.00303 4.11149 6.81384 4.30059 6.58606 4.4321L6.26359 4.61958C6.03558 4.75122 5.77694 4.82053 5.51366 4.82053C5.25038 4.82053 4.99174 4.75122 4.76373 4.61958L4.65124 4.55959C4.30707 4.36105 3.89819 4.3072 3.51435 4.40983C3.13051 4.51247 2.80308 4.76322 2.60393 5.10704L2.43895 5.39201C2.24041 5.73618 2.18655 6.14506 2.28919 6.5289C2.39183 6.91274 2.64258 7.24017 2.9864 7.43932L3.09889 7.51431C3.32557 7.64518 3.51406 7.8331 3.64562 8.05938C3.77718 8.28567 3.84723 8.54244 3.84881 8.80419V9.18665C3.84986 9.45094 3.78106 9.71082 3.64937 9.93996C3.51767 10.1691 3.32777 10.3594 3.09889 10.4915L2.9864 10.559C2.64258 10.7582 2.39183 11.0856 2.28919 11.4694C2.18655 11.8533 2.24041 12.2622 2.43895 12.6063L2.60393 12.8913C2.80308 13.2351 3.13051 13.4859 3.51435 13.5885C3.89819 13.6911 4.30707 13.6373 4.65124 13.4388L4.76373 13.3788C4.99174 13.2471 5.25038 13.1778 5.51366 13.1778C5.77694 13.1778 6.03558 13.2471 6.26359 13.3788L6.58606 13.5662C6.81384 13.6977 7.00303 13.8868 7.13466 14.1146C7.26628 14.3423 7.33571 14.6006 7.33598 14.8636V14.9986C7.33598 15.3964 7.49401 15.7779 7.77528 16.0592C8.05656 16.3404 8.43806 16.4985 8.83584 16.4985H9.16581C9.5636 16.4985 9.94509 16.3404 10.2264 16.0592C10.5077 15.7779 10.6657 15.3964 10.6657 14.9986V14.8636C10.6659 14.6006 10.7354 14.3423 10.867 14.1146C10.9986 13.8868 11.1878 13.6977 11.4156 13.5662L11.7381 13.3788C11.9661 13.2471 12.2247 13.1778 12.488 13.1778C12.7513 13.1778 13.0099 13.2471 13.2379 13.3788L13.3504 13.4388C13.6946 13.6373 14.1035 13.6911 14.4873 13.5885C14.8711 13.4859 15.1986 13.2351 15.3977 12.8913L15.5627 12.5988C15.7612 12.2547 15.8151 11.8458 15.7125 11.4619C15.6098 11.0781 15.3591 10.7507 15.0153 10.5515L14.9028 10.4915C14.6739 10.3594 14.484 10.1691 14.3523 9.93996C14.2206 9.71082 14.1518 9.45094 14.1528 9.18665V8.81169C14.1518 8.5474 14.2206 8.28752 14.3523 8.05838C14.484 7.82923 14.6739 7.63895 14.9028 7.50681L15.0153 7.43932C15.3591 7.24017 15.6098 6.91274 15.7125 6.5289C15.8151 6.14506 15.7612 5.73618 15.5627 5.39201L15.3977 5.10704C15.1986 4.76322 14.8711 4.51247 14.4873 4.40983C14.1035 4.3072 13.6946 4.36105 13.3504 4.55959L13.2379 4.61958C13.0099 4.75122 12.7513 4.82053 12.488 4.82053C12.2247 4.82053 11.9661 4.75122 11.7381 4.61958L11.4156 4.4321C11.1878 4.30059 10.9986 4.11149 10.867 3.88378C10.7354 3.65607 10.6659 3.39774 10.6657 3.13472V2.99974C10.6657 2.60195 10.5077 2.22045 10.2264 1.93918C9.94509 1.6579 9.5636 1.49988 9.16581 1.49988Z" stroke="#6A7282" stroke-width="1.49986" stroke-linecap="round" stroke-linejoin="round"/>
<path d="M8.99979 11.249C10.2423 11.249 11.2496 10.2417 11.2496 8.99918C11.2496 7.75665 10.2423 6.74939 8.99979 6.74939C7.75726 6.74939 6.75 7.75665 6.75 8.99918C6.75 10.2417 7.75726 11.249 8.99979 11.249Z" stroke="#6A7282" stroke-width="1.49986" stroke-linecap="round" stroke-linejoin="round"/>
</g>
<defs>
<clipPath id="clip0_1593_332">
<rect width="17.9983" height="17.9983" fill="white"/>
</clipPath>
</defs>
</svg>
