<svg width="15" height="15" viewBox="0 0 15 15" fill="none" xmlns="http://www.w3.org/2000/svg">
<g clip-path="url(#clip0_1914_218)">
<path d="M6.25 8.12476C6.51834 8.4835 6.8607 8.78034 7.25385 8.99513C7.64699 9.20993 8.08174 9.33766 8.52859 9.36966C8.97545 9.40166 9.42396 9.33719 9.8437 9.18061C10.2635 9.02403 10.6446 8.77902 10.9613 8.46217L12.8359 6.58764C13.405 5.9984 13.7199 5.20921 13.7128 4.39005C13.7056 3.57089 13.3771 2.78729 12.7978 2.20803C12.2186 1.62878 11.435 1.30021 10.6158 1.29309C9.79664 1.28597 9.00745 1.60087 8.41822 2.16998L7.34348 3.23846" stroke="#6A7282" stroke-width="1.24969" stroke-linecap="round" stroke-linejoin="round"/>
<path d="M8.74804 6.87398C8.4797 6.51524 8.13734 6.2184 7.74419 6.0036C7.35104 5.78881 6.9163 5.66108 6.46945 5.62908C6.02259 5.59707 5.57408 5.66155 5.15434 5.81812C4.73459 5.9747 4.35343 6.21972 4.0367 6.53656L2.16216 8.4111C1.59306 9.00033 1.27816 9.78952 1.28527 10.6087C1.29239 11.4278 1.62096 12.2114 2.20022 12.7907C2.77948 13.37 3.56308 13.6985 4.38224 13.7056C5.2014 13.7128 5.99059 13.3979 6.57982 12.8288L7.64831 11.7603" stroke="#6A7282" stroke-width="1.24969" stroke-linecap="round" stroke-linejoin="round"/>
</g>
<defs>
<clipPath id="clip0_1914_218">
<rect width="14.9963" height="14.9963" fill="white"/>
</clipPath>
</defs>
</svg>
