<svg width="15" height="15" viewBox="0 0 15 15" fill="none" xmlns="http://www.w3.org/2000/svg">
<g clip-path="url(#clip0_3394_1663)">
<path d="M9.99219 3.12329H13.7402" stroke="#9CA3AF" stroke-width="1.24935" stroke-linecap="round" stroke-linejoin="round"/>
<path d="M11.8672 1.24927V4.99732" stroke="#9CA3AF" stroke-width="1.24935" stroke-linecap="round" stroke-linejoin="round"/>
<path d="M13.1191 7.18376V11.8688C13.1191 12.2002 12.9875 12.5179 12.7532 12.7522C12.5189 12.9865 12.2011 13.1182 11.8698 13.1182H3.12435C2.793 13.1182 2.47522 12.9865 2.24093 12.7522C2.00663 12.5179 1.875 12.2002 1.875 11.8688V3.12337C1.875 2.79203 2.00663 2.47425 2.24093 2.23995C2.47522 2.00565 2.793 1.87402 3.12435 1.87402H7.80941" stroke="#9CA3AF" stroke-width="1.24935" stroke-linecap="round" stroke-linejoin="round"/>
<path d="M13.1201 9.3702L11.1924 7.44245C10.9581 7.20824 10.6404 7.07666 10.3091 7.07666C9.9778 7.07666 9.66008 7.20824 9.4258 7.44245L3.75 13.1182" stroke="#9CA3AF" stroke-width="1.24935" stroke-linecap="round" stroke-linejoin="round"/>
<path d="M5.62435 6.8715C6.31435 6.8715 6.8737 6.31215 6.8737 5.62215C6.8737 4.93216 6.31435 4.3728 5.62435 4.3728C4.93435 4.3728 4.375 4.93216 4.375 5.62215C4.375 6.31215 4.93435 6.8715 5.62435 6.8715Z" stroke="#9CA3AF" stroke-width="1.24935" stroke-linecap="round" stroke-linejoin="round"/>
</g>
<defs>
<clipPath id="clip0_3394_1663">
<rect width="14.9922" height="14.9922" fill="white"/>
</clipPath>
</defs>
</svg>
