<svg width="13" height="13" viewBox="0 0 13 13" fill="none" xmlns="http://www.w3.org/2000/svg">
<g clip-path="url(#clip0_3394_1436)">
<path d="M6.49219 9.2019V11.9084" stroke="#FF5E5E" stroke-width="1.08258" stroke-linecap="round" stroke-linejoin="round"/>
<path d="M4.86829 5.82436C4.86818 6.02576 4.8119 6.22315 4.70575 6.39431C4.59961 6.56548 4.44782 6.70364 4.26746 6.79327L3.30396 7.28043C3.12359 7.37006 2.97181 7.50822 2.86566 7.67939C2.75952 7.85055 2.70323 8.04794 2.70312 8.24934V8.66072C2.70312 8.80428 2.76015 8.94196 2.86167 9.04348C2.96318 9.14499 3.10086 9.20202 3.24442 9.20202H9.73992C9.88348 9.20202 10.0212 9.14499 10.1227 9.04348C10.2242 8.94196 10.2812 8.80428 10.2812 8.66072V8.24934C10.2811 8.04794 10.2248 7.85055 10.1187 7.67939C10.0125 7.50822 9.86074 7.37006 9.68037 7.28043L8.71688 6.79327C8.53651 6.70364 8.38472 6.56548 8.27858 6.39431C8.17244 6.22315 8.11615 6.02576 8.11604 5.82436V3.7891C8.11604 3.64554 8.17307 3.50786 8.27458 3.40635C8.37609 3.30484 8.51377 3.24781 8.65733 3.24781C8.94445 3.24781 9.21981 3.13375 9.42283 2.93073C9.62586 2.7277 9.73992 2.45234 9.73992 2.16522C9.73992 1.87811 9.62586 1.60275 9.42283 1.39972C9.21981 1.1967 8.94445 1.08264 8.65733 1.08264H4.327C4.03988 1.08264 3.76452 1.1967 3.5615 1.39972C3.35847 1.60275 3.24442 1.87811 3.24442 2.16522C3.24442 2.45234 3.35847 2.7277 3.5615 2.93073C3.76452 3.13375 4.03988 3.24781 4.327 3.24781C4.47056 3.24781 4.60824 3.30484 4.70975 3.40635C4.81126 3.50786 4.86829 3.64554 4.86829 3.7891V5.82436Z" stroke="#FF5E5E" stroke-width="1.08258" stroke-linecap="round" stroke-linejoin="round"/>
</g>
<defs>
<clipPath id="clip0_3394_1436">
<rect width="12.991" height="12.991" fill="white"/>
</clipPath>
</defs>
</svg>
