<svg width="18" height="18" viewBox="0 0 18 18" fill="none" xmlns="http://www.w3.org/2000/svg">
<g clip-path="url(#clip0_3101_25704)">
<path d="M11.9997 15.7494V14.2494C11.9997 13.4538 11.6836 12.6908 11.121 12.1282C10.5584 11.5656 9.79537 11.2495 8.99975 11.2495H4.4999C3.70428 11.2495 2.94124 11.5656 2.37865 12.1282C1.81606 12.6908 1.5 13.4538 1.5 14.2494V15.7494" stroke="#9CA3AF" stroke-width="1.49995" stroke-linecap="round" stroke-linejoin="round"/>
<path d="M6.7499 8.2498C8.4067 8.2498 9.7498 6.9067 9.7498 5.2499C9.7498 3.5931 8.4067 2.25 6.7499 2.25C5.0931 2.25 3.75 3.5931 3.75 5.2499C3.75 6.9067 5.0931 8.2498 6.7499 8.2498Z" stroke="#9CA3AF" stroke-width="1.49995" stroke-linecap="round" stroke-linejoin="round"/>
<path d="M16.4999 15.7495V14.2496C16.4994 13.5849 16.2782 12.9392 15.871 12.4139C15.4637 11.8885 14.8936 11.5133 14.25 11.3472" stroke="#9CA3AF" stroke-width="1.49995" stroke-linecap="round" stroke-linejoin="round"/>
<path d="M12 2.34766C12.6453 2.51288 13.2172 2.88816 13.6257 3.41435C14.0341 3.94054 14.2558 4.5877 14.2558 5.25381C14.2558 5.91992 14.0341 6.56708 13.6257 7.09327C13.2172 7.61945 12.6453 7.99474 12 8.15996" stroke="#9CA3AF" stroke-width="1.49995" stroke-linecap="round" stroke-linejoin="round"/>
</g>
<defs>
<clipPath id="clip0_3101_25704">
<rect width="17.9994" height="17.9994" fill="white"/>
</clipPath>
</defs>
</svg>
