<svg width="16" height="16" viewBox="0 0 16 16" fill="none" xmlns="http://www.w3.org/2000/svg">
<g clip-path="url(#clip0_3101_22538)">
<path d="M9.6922 14.4552C9.71753 14.5184 9.76155 14.5722 9.81837 14.6096C9.87519 14.647 9.94208 14.6661 10.0101 14.6643C10.078 14.6626 10.1439 14.6401 10.1987 14.5998C10.2535 14.5596 10.2947 14.5036 10.3168 14.4392L14.6496 1.774C14.671 1.71494 14.675 1.65102 14.6614 1.58973C14.6477 1.52843 14.6169 1.4723 14.5725 1.42789C14.5281 1.38349 14.4719 1.35265 14.4106 1.33898C14.3493 1.32531 14.2854 1.32938 14.2264 1.35072L1.56112 5.68356C1.49679 5.70562 1.44075 5.74683 1.40052 5.80166C1.36028 5.85649 1.33779 5.92232 1.33605 5.9903C1.33431 6.05829 1.3534 6.12517 1.39077 6.18199C1.42815 6.23881 1.482 6.28283 1.54512 6.30816L6.83119 8.42792C6.9983 8.49483 7.15012 8.59488 7.27752 8.72204C7.40491 8.84921 7.50523 9.00085 7.57244 9.16784L9.6922 14.4552Z" stroke="#9CA3AF" stroke-width="1.33318" stroke-linecap="round" stroke-linejoin="round"/>
<path d="M14.566 1.43164L7.27344 8.72349" stroke="#9CA3AF" stroke-width="1.33318" stroke-linecap="round" stroke-linejoin="round"/>
</g>
<defs>
<clipPath id="clip0_3101_22538">
<rect width="15.9982" height="15.9982" fill="white"/>
</clipPath>
</defs>
</svg>
