<svg width="13" height="13" viewBox="0 0 13 13" fill="none" xmlns="http://www.w3.org/2000/svg">
<path d="M5.96094 2.54734C5.96083 2.47189 5.93837 2.39817 5.8964 2.33547C5.85444 2.27277 5.79484 2.22391 5.72513 2.19505C5.65541 2.1662 5.57872 2.15863 5.50471 2.17332C5.43071 2.18801 5.36272 2.22429 5.30931 2.27759L3.47631 4.11005C3.40557 4.18121 3.32141 4.23763 3.22871 4.27603C3.13601 4.31443 3.03661 4.33405 2.93627 4.33376H1.6276C1.48395 4.33376 1.34617 4.39082 1.24459 4.49241C1.14301 4.59399 1.08594 4.73176 1.08594 4.87542V8.12542C1.08594 8.26908 1.14301 8.40686 1.24459 8.50844C1.34617 8.61002 1.48395 8.66709 1.6276 8.66709H2.93627C3.03661 8.66679 3.13601 8.68642 3.22871 8.72482C3.32141 8.76322 3.40557 8.81963 3.47631 8.8908L5.30877 10.7238C5.36218 10.7773 5.43027 10.8138 5.50442 10.8285C5.57856 10.8433 5.65543 10.8358 5.72527 10.8068C5.79512 10.7779 5.8548 10.7288 5.89675 10.6659C5.9387 10.603 5.96104 10.5291 5.96094 10.4535V2.54734Z" stroke="#9CA3AF" stroke-width="1.08333" stroke-linecap="round" stroke-linejoin="round"/>
<path d="M8.66406 4.875C9.01566 5.3438 9.20573 5.914 9.20573 6.5C9.20573 7.086 9.01566 7.6562 8.66406 8.125" stroke="#9CA3AF" stroke-width="1.08333" stroke-linecap="round" stroke-linejoin="round"/>
<path d="M10.4922 9.94707C10.9449 9.49438 11.304 8.95696 11.549 8.3655C11.794 7.77403 11.9201 7.1401 11.9201 6.4999C11.9201 5.8597 11.794 5.22577 11.549 4.63431C11.304 4.04284 10.9449 3.50542 10.4922 3.05273" stroke="#9CA3AF" stroke-width="1.08333" stroke-linecap="round" stroke-linejoin="round"/>
</svg>
