<svg width="20" height="20" viewBox="0 0 20 20" fill="none" xmlns="http://www.w3.org/2000/svg">
<path d="M15.8278 5.83097V3.33201C15.8278 3.11109 15.74 2.89922 15.5838 2.743C15.4276 2.58678 15.2157 2.49902 14.9948 2.49902H4.16597C3.72413 2.49902 3.30038 2.67455 2.98795 2.98698C2.67552 3.29941 2.5 3.72315 2.5 4.165C2.5 4.60684 2.67552 5.03059 2.98795 5.34302C3.30038 5.65545 3.72413 5.83097 4.16597 5.83097H16.6608C16.8817 5.83097 17.0936 5.91873 17.2498 6.07495C17.406 6.23117 17.4938 6.44304 17.4938 6.66396V9.99591M17.4938 9.99591H14.9948C14.553 9.99591 14.1292 10.1714 13.8168 10.4839C13.5044 10.7963 13.3288 11.22 13.3288 11.6619C13.3288 12.1037 13.5044 12.5275 13.8168 12.8399C14.1292 13.1523 14.553 13.3279 14.9948 13.3279H17.4938C17.7147 13.3279 17.9266 13.2401 18.0828 13.0839C18.239 12.9277 18.3268 12.7158 18.3268 12.4949V10.8289C18.3268 10.608 18.239 10.3961 18.0828 10.2399C17.9266 10.0837 17.7147 9.99591 17.4938 9.99591Z" stroke="#827717" stroke-width="1.66597" stroke-linecap="round" stroke-linejoin="round"/>
<path d="M2.5 4.16504V15.8269C2.5 16.2687 2.67552 16.6925 2.98795 17.0049C3.30038 17.3173 3.72413 17.4928 4.16597 17.4928H16.6608C16.8817 17.4928 17.0936 17.4051 17.2498 17.2489C17.406 17.0926 17.4938 16.8808 17.4938 16.6599V13.3279" stroke="#827717" stroke-width="1.66597" stroke-linecap="round" stroke-linejoin="round"/>
</svg>
