<svg width="24" height="24" viewBox="0 0 24 24" fill="none" xmlns="http://www.w3.org/2000/svg">
<path d="M4.49933 16.4944C2.99983 17.754 2.5 21.4927 2.5 21.4927C2.5 21.4927 6.23874 20.9929 7.49831 19.4934C8.20807 18.6537 8.19808 17.3641 7.40834 16.5844C7.01978 16.2135 6.50794 15.9992 5.97105 15.9826C5.43417 15.966 4.91006 16.1483 4.49933 16.4944Z" stroke="#FF5E5E" stroke-width="1.99933" stroke-linecap="round" stroke-linejoin="round"/>
<path d="M11.999 14.9949L9 11.9959C9.53197 10.6158 10.2018 9.29287 10.9993 8.04723C12.1641 6.18485 13.786 4.65142 15.7107 3.59282C17.6355 2.53422 19.799 1.98565 21.9956 1.99927C21.9956 4.71835 21.2159 9.49674 15.9976 12.9956C14.735 13.794 13.3954 14.4638 11.999 14.9949Z" stroke="#FF5E5E" stroke-width="1.99933" stroke-linecap="round" stroke-linejoin="round"/>
<path d="M8.99831 11.9959H4C4 11.9959 4.54981 8.96697 5.99933 7.99729C7.61878 6.91766 10.9976 7.99729 10.9976 7.99729" stroke="#FF5E5E" stroke-width="1.99933" stroke-linecap="round" stroke-linejoin="round"/>
<path d="M11.9922 14.9949V19.9932C11.9922 19.9932 15.0212 19.4434 15.9908 17.9939C17.0705 16.3745 15.9908 12.9956 15.9908 12.9956" stroke="#FF5E5E" stroke-width="1.99933" stroke-linecap="round" stroke-linejoin="round"/>
</svg>
