<svg width="24" height="24" viewBox="0 0 24 24" fill="none" xmlns="http://www.w3.org/2000/svg">
<path d="M11.9966 21.9925C17.5176 21.9925 21.9932 17.5169 21.9932 11.9959C21.9932 6.47491 17.5176 1.99927 11.9966 1.99927C6.47564 1.99927 2 6.47491 2 11.9959C2 17.5169 6.47564 21.9925 11.9966 21.9925Z" stroke="#F59E0B" stroke-width="1.99933" stroke-linecap="round" stroke-linejoin="round"/>
<path d="M11.998 17.9939C15.3106 17.9939 17.996 15.3085 17.996 11.9959C17.996 8.68331 15.3106 5.99792 11.998 5.99792C8.68538 5.99792 6 8.68331 6 11.9959C6 15.3085 8.68538 17.9939 11.998 17.9939Z" stroke="#F59E0B" stroke-width="1.99933" stroke-linecap="round" stroke-linejoin="round"/>
<path d="M11.9993 13.9952C13.1035 13.9952 13.9987 13.1001 13.9987 11.9959C13.9987 10.8917 13.1035 9.99658 11.9993 9.99658C10.8951 9.99658 10 10.8917 10 11.9959C10 13.1001 10.8951 13.9952 11.9993 13.9952Z" stroke="#F59E0B" stroke-width="1.99933" stroke-linecap="round" stroke-linejoin="round"/>
</svg>
