<svg width="20" height="20" viewBox="0 0 20 20" fill="none" xmlns="http://www.w3.org/2000/svg">
<g clip-path="url(#clip0_1593_713)">
<path d="M11.666 7.50016C11.666 7.94211 11.4905 8.36595 11.178 8.67845C10.8655 8.99095 10.4416 9.16651 9.99968 9.16651H5.00065L1.66797 12.4992V3.33431C1.66797 2.89237 1.84353 2.46853 2.15603 2.15603C2.46853 1.84353 2.89237 1.66797 3.33431 1.66797H9.99968C10.4416 1.66797 10.8655 1.84353 11.178 2.15603C11.4905 2.46853 11.666 2.89237 11.666 3.33431V7.50016Z" stroke="#E5E7EB" stroke-width="1.66634" stroke-linecap="round" stroke-linejoin="round"/>
<path d="M14.9974 7.5H16.6637C17.1057 7.5 17.5295 7.67556 17.842 7.98806C18.1545 8.30056 18.3301 8.7244 18.3301 9.16634V18.3312L14.9974 14.9985H9.99837C9.55643 14.9985 9.13259 14.823 8.82009 14.5105C8.50759 14.198 8.33203 13.7741 8.33203 13.3322V12.499" stroke="#E5E7EB" stroke-width="1.66634" stroke-linecap="round" stroke-linejoin="round"/>
</g>
<defs>
<clipPath id="clip0_1593_713">
<rect width="19.9961" height="19.9961" fill="white"/>
</clipPath>
</defs>
</svg>
