<svg width="20" height="20" viewBox="0 0 20 20" fill="none" xmlns="http://www.w3.org/2000/svg">
<g clip-path="url(#clip0_1593_704)">
<path d="M6.66699 11.666C9.42788 11.666 11.666 9.42788 11.666 6.66699C11.666 3.90611 9.42788 1.66797 6.66699 1.66797C3.90611 1.66797 1.66797 3.90611 1.66797 6.66699C1.66797 9.42788 3.90611 11.666 6.66699 11.666Z" stroke="#1E2125" stroke-width="1.66634" stroke-linecap="round" stroke-linejoin="round"/>
<path d="M15.0704 8.64062C15.858 8.93426 16.5588 9.42175 17.1081 10.058C17.6574 10.6943 18.0373 11.4588 18.2129 12.2808C18.3884 13.1028 18.3538 13.9559 18.1123 14.761C17.8708 15.5661 17.4302 16.2973 16.8312 16.887C16.2322 17.4767 15.4942 17.9059 14.6854 18.1348C13.8766 18.3637 13.0232 18.385 12.204 18.1966C11.3848 18.0083 10.6263 17.6165 9.9987 17.0573C9.37108 16.4982 8.89459 15.7898 8.61328 14.9977" stroke="#1E2125" stroke-width="1.66634" stroke-linecap="round" stroke-linejoin="round"/>
<path d="M5.83203 5H6.6652V8.33268" stroke="#1E2125" stroke-width="1.66634" stroke-linecap="round" stroke-linejoin="round"/>
<path d="M13.9226 11.5625L14.5058 12.1541L12.1562 14.5036" stroke="#1E2125" stroke-width="1.66634" stroke-linecap="round" stroke-linejoin="round"/>
</g>
<defs>
<clipPath id="clip0_1593_704">
<rect width="19.9961" height="19.9961" fill="white"/>
</clipPath>
</defs>
</svg>
