<svg width="20" height="20" viewBox="0 0 20 20" fill="none" xmlns="http://www.w3.org/2000/svg">
<path d="M2.5 9.16206L17.4922 4.99756V14.9924L2.5 11.6608V9.16206Z" stroke="white" stroke-width="1.6658" stroke-linecap="round" stroke-linejoin="round"/>
<path d="M9.66323 13.9928C9.57573 14.31 9.4266 14.6068 9.22438 14.8664C9.02215 15.126 8.77078 15.3432 8.48461 15.5056C8.19845 15.668 7.88309 15.7725 7.55656 15.813C7.23002 15.8536 6.8987 15.8294 6.5815 15.7419C6.2643 15.6544 5.96745 15.5053 5.70788 15.303C5.44832 15.1008 5.23112 14.8494 5.06871 14.5633C4.90629 14.2771 4.80183 13.9618 4.76128 13.6352C4.72074 13.3087 4.74491 12.9774 4.83241 12.6602" stroke="white" stroke-width="1.6658" stroke-linecap="round" stroke-linejoin="round"/>
</svg>
