<svg width="18" height="18" viewBox="0 0 18 18" fill="none" xmlns="http://www.w3.org/2000/svg">
<path d="M3 1.5V16.4963L4.49963 15.7465L5.99927 16.4963L7.4989 15.7465L8.99853 16.4963L10.4982 15.7465L11.9978 16.4963L13.4974 15.7465L14.9971 16.4963V1.5L13.4974 2.24982L11.9978 1.5L10.4982 2.24982L8.99853 1.5L7.4989 2.24982L5.99927 1.5L4.49963 2.24982L3 1.5Z" stroke="#1E2125" stroke-width="1.49963" stroke-linecap="round" stroke-linejoin="round"/>
<path d="M11.9985 6H7.49963C7.10191 6 6.72047 6.158 6.43923 6.43923C6.158 6.72047 6 7.10191 6 7.49963C6 7.89736 6.158 8.2788 6.43923 8.56003C6.72047 8.84127 7.10191 8.99927 7.49963 8.99927H10.4989C10.8966 8.99927 11.2781 9.15726 11.5593 9.4385C11.8405 9.71974 11.9985 10.1012 11.9985 10.4989C11.9985 10.8966 11.8405 11.2781 11.5593 11.5593C11.2781 11.8405 10.8966 11.9985 10.4989 11.9985H6" stroke="#1E2125" stroke-width="1.49963" stroke-linecap="round" stroke-linejoin="round"/>
<path d="M8.99609 13.123V4.875" stroke="#1E2125" stroke-width="1.49963" stroke-linecap="round" stroke-linejoin="round"/>
</svg>
