<svg width="20" height="27" viewBox="0 0 20 27" fill="none" xmlns="http://www.w3.org/2000/svg">
<path d="M8.28086 16.6831C8.20647 16.3683 8.05615 16.081 7.84555 15.8511C7.63494 15.6212 7.37176 15.4571 7.08336 15.3759L1.97086 13.9368C1.88364 13.9098 1.80687 13.8524 1.75221 13.7735C1.69754 13.6945 1.66797 13.5982 1.66797 13.4993C1.66797 13.4003 1.69754 13.304 1.75221 13.225C1.80687 13.1461 1.88364 13.0887 1.97086 13.0617L7.08336 11.6217C7.37166 11.5406 7.63477 11.3766 7.84537 11.1469C8.05596 10.9172 8.20634 10.6301 8.28086 10.3154L9.5992 4.7346C9.6237 4.63901 9.67618 4.5548 9.74863 4.49481C9.82108 4.43482 9.90951 4.40234 10.0004 4.40234C10.0914 4.40234 10.1798 4.43482 10.2523 4.49481C10.3247 4.5548 10.3772 4.63901 10.4017 4.7346L11.7192 10.3154C11.7936 10.6302 11.9439 10.9175 12.1545 11.1474C12.3651 11.3773 12.6283 11.5414 12.9167 11.6226L18.0292 13.0608C18.1171 13.0873 18.1946 13.1445 18.2499 13.2237C18.3052 13.3029 18.3351 13.3997 18.3351 13.4993C18.3351 13.5988 18.3052 13.6956 18.2499 13.7748C18.1946 13.854 18.1171 13.9113 18.0292 13.9377L12.9167 15.3759C12.6283 15.4571 12.3651 15.6212 12.1545 15.8511C11.9439 16.081 11.7936 16.3683 11.7192 16.6831L10.4009 22.2639C10.3764 22.3595 10.3239 22.4437 10.2514 22.5037C10.179 22.5637 10.0905 22.5962 9.99961 22.5962C9.90868 22.5962 9.82025 22.5637 9.7478 22.5037C9.67535 22.4437 9.62287 22.3595 9.59836 22.2639L8.28086 16.6831Z" stroke="white" stroke-width="1.34766" stroke-linecap="round" stroke-linejoin="round"/>
<path d="M16.666 5.3125V8.95118" stroke="white" stroke-width="1.34766" stroke-linecap="round" stroke-linejoin="round"/>
<path d="M18.3333 7.13281H15" stroke="white" stroke-width="1.34766" stroke-linecap="round" stroke-linejoin="round"/>
<path d="M3.33398 18.0469V19.8662" stroke="white" stroke-width="1.34766" stroke-linecap="round" stroke-linejoin="round"/>
<path d="M4.16667 18.957H2.5" stroke="white" stroke-width="1.34766" stroke-linecap="round" stroke-linejoin="round"/>
</svg>
