<svg width="18" height="18" viewBox="0 0 18 18" fill="none" xmlns="http://www.w3.org/2000/svg">
<path d="M11.2487 1.5H6.74982C6.3357 1.5 6 1.8357 6 2.24982V3.74945C6 4.16356 6.3357 4.49927 6.74982 4.49927H11.2487C11.6628 4.49927 11.9985 4.16356 11.9985 3.74945V2.24982C11.9985 1.8357 11.6628 1.5 11.2487 1.5Z" stroke="#E5E7EB" stroke-width="1.49963" stroke-linecap="round" stroke-linejoin="round"/>
<path d="M11.9978 3H13.4974C13.8952 3 14.2766 3.158 14.5578 3.43923C14.8391 3.72047 14.9971 4.10191 14.9971 4.49963V14.9971C14.9971 15.3948 14.8391 15.7762 14.5578 16.0575C14.2766 16.3387 13.8952 16.4967 13.4974 16.4967H4.49963C4.10191 16.4967 3.72047 16.3387 3.43923 16.0575C3.158 15.7762 3 15.3948 3 14.9971V4.49963C3 4.10191 3.158 3.72047 3.43923 3.43923C3.72047 3.158 4.10191 3 4.49963 3H5.99927" stroke="#E5E7EB" stroke-width="1.49963" stroke-linecap="round" stroke-linejoin="round"/>
<path d="M8.99609 8.24609H11.9954" stroke="#E5E7EB" stroke-width="1.49963" stroke-linecap="round" stroke-linejoin="round"/>
<path d="M8.99609 11.9961H11.9954" stroke="#E5E7EB" stroke-width="1.49963" stroke-linecap="round" stroke-linejoin="round"/>
<path d="M6 8.24609H6.0075" stroke="#E5E7EB" stroke-width="1.49963" stroke-linecap="round" stroke-linejoin="round"/>
<path d="M6 11.9961H6.0075" stroke="#E5E7EB" stroke-width="1.49963" stroke-linecap="round" stroke-linejoin="round"/>
</svg>
