<svg width="24" height="24" viewBox="0 0 24 24" fill="none" xmlns="http://www.w3.org/2000/svg">
<path d="M15.4719 12.8848L16.9864 21.4079C17.0034 21.5082 16.9893 21.6114 16.9461 21.7035C16.9028 21.7957 16.8325 21.8724 16.7444 21.9235C16.6564 21.9746 16.5549 21.9976 16.4534 21.9894C16.352 21.9812 16.2554 21.9423 16.1767 21.8777L12.5979 19.1916C12.4251 19.0626 12.2153 18.9928 11.9996 18.9928C11.784 18.9928 11.5741 19.0626 11.4013 19.1916L7.81652 21.8767C7.73787 21.9411 7.64144 21.98 7.54011 21.9882C7.43878 21.9964 7.33736 21.9735 7.24938 21.9226C7.1614 21.8716 7.09104 21.7951 7.0477 21.7031C7.00436 21.6112 6.99009 21.5082 7.0068 21.4079L8.52028 12.8848" stroke="#FF5E5E" stroke-width="1.99933" stroke-linecap="round" stroke-linejoin="round"/>
<path d="M11.9941 13.996C15.3067 13.996 17.992 11.3106 17.992 7.99798C17.992 4.68538 15.3067 2 11.9941 2C8.68148 2 5.99609 4.68538 5.99609 7.99798C5.99609 11.3106 8.68148 13.996 11.9941 13.996Z" stroke="#FF5E5E" stroke-width="1.99933" stroke-linecap="round" stroke-linejoin="round"/>
</svg>
