<svg width="20" height="20" viewBox="0 0 20 20" fill="none" xmlns="http://www.w3.org/2000/svg">
<path d="M0 9.9934C0 4.4742 4.4742 0 9.9934 0C15.5126 0 19.9868 4.4742 19.9868 9.9934C19.9868 15.5126 15.5126 19.9868 9.9934 19.9868C4.4742 19.9868 0 15.5126 0 9.9934Z" fill="#FFF5F5"/>
<path d="M3.76491 13.9941L9.54332 4.17596L15.3217 13.9941H3.76491ZM9.54332 12.8478C9.77344 12.8478 9.96804 12.7669 10.1271 12.6049C10.2891 12.443 10.37 12.2484 10.37 12.0211C10.37 11.791 10.2891 11.595 10.1271 11.4331C9.96804 11.2711 9.77344 11.1902 9.54332 11.1902C9.31605 11.1902 9.12145 11.2711 8.95952 11.4331C8.79759 11.595 8.71662 11.791 8.71662 12.0211C8.71662 12.2484 8.79759 12.443 8.95952 12.6049C9.12145 12.7669 9.31605 12.8478 9.54332 12.8478ZM8.90412 10.3038H10.1825L10.2422 7.44869H8.84446L8.90412 10.3038Z" fill="#FF5E5E"/>
</svg>
