<svg width="24" height="24" viewBox="0 0 24 24" fill="none" xmlns="http://www.w3.org/2000/svg">
<path d="M11.9961 6.99805V20.9933" stroke="#FF5E5E" stroke-width="1.99933" stroke-linecap="round" stroke-linejoin="round"/>
<path d="M2.99966 17.993C2.73454 17.993 2.48027 17.8877 2.29279 17.7002C2.10532 17.5127 2 17.2584 2 16.9933V3.99771C2 3.73258 2.10532 3.47831 2.29279 3.29084C2.48027 3.10337 2.73454 2.99805 2.99966 2.99805H7.99798C9.05848 2.99805 10.0756 3.41933 10.8254 4.16922C11.5753 4.91912 11.9966 5.93619 11.9966 6.9967C11.9966 5.93619 12.4179 4.91912 13.1678 4.16922C13.9177 3.41933 14.9348 2.99805 15.9953 2.99805H20.9936C21.2587 2.99805 21.513 3.10337 21.7005 3.29084C21.8879 3.47831 21.9933 3.73258 21.9933 3.99771V16.9933C21.9933 17.2584 21.8879 17.5127 21.7005 17.7002C21.513 17.8877 21.2587 17.993 20.9936 17.993H14.9956C14.2002 17.993 13.4374 18.3089 12.875 18.8714C12.3126 19.4338 11.9966 20.1966 11.9966 20.992C11.9966 20.1966 11.6807 19.4338 11.1182 18.8714C10.5558 18.3089 9.79302 17.993 8.99764 17.993H2.99966Z" stroke="#FF5E5E" stroke-width="1.99933" stroke-linecap="round" stroke-linejoin="round"/>
</svg>
