<svg width="20" height="20" viewBox="0 0 20 20" fill="none" xmlns="http://www.w3.org/2000/svg">
<path d="M12.4951 1.66602H4.99805C4.55619 1.66602 4.13243 1.84154 3.82 2.15398C3.50756 2.46642 3.33203 2.89018 3.33203 3.33203V16.6602C3.33203 17.102 3.50756 17.5258 3.82 17.8382C4.13243 18.1507 4.55619 18.3262 4.99805 18.3262H14.9941C15.436 18.3262 15.8598 18.1507 16.1722 17.8382C16.4846 17.5258 16.6602 17.102 16.6602 16.6602V5.83106L12.4951 1.66602Z" stroke="#6A7282" stroke-width="1.66602" stroke-linecap="round" stroke-linejoin="round"/>
<path d="M11.6641 1.66602V4.99805C11.6641 5.4399 11.8396 5.86366 12.152 6.1761C12.4645 6.48854 12.8882 6.66407 13.3301 6.66407H16.6621" stroke="#6A7282" stroke-width="1.66602" stroke-linecap="round" stroke-linejoin="round"/>
<path d="M8.33008 7.49805H6.66406" stroke="#6A7282" stroke-width="1.66602" stroke-linecap="round" stroke-linejoin="round"/>
<path d="M13.3281 10.8301H6.66406" stroke="#6A7282" stroke-width="1.66602" stroke-linecap="round" stroke-linejoin="round"/>
<path d="M13.3281 14.1621H6.66406" stroke="#6A7282" stroke-width="1.66602" stroke-linecap="round" stroke-linejoin="round"/>
</svg>
