<svg width="20" height="20" viewBox="0 0 20 20" fill="none" xmlns="http://www.w3.org/2000/svg">
<g clip-path="url(#clip0_1699_21093)">
<path d="M8.33203 10.8284C8.68977 11.3067 9.14618 11.7024 9.6703 11.9888C10.1944 12.2751 10.774 12.4454 11.3697 12.4881C11.9654 12.5307 12.5634 12.4448 13.123 12.2361C13.6825 12.0273 14.1907 11.7007 14.6129 11.2783L17.1119 8.77925C17.8706 7.99371 18.2904 6.94161 18.281 5.84955C18.2715 4.75749 17.8334 3.71285 17.0612 2.94062C16.289 2.16838 15.2443 1.73035 14.1523 1.72086C13.0602 1.71137 12.0081 2.13118 11.2226 2.88988L9.7898 4.31432" stroke="#FF5E5E" stroke-width="1.66602" stroke-linecap="round" stroke-linejoin="round"/>
<path d="M11.6639 9.16246C11.3062 8.68421 10.8498 8.28848 10.3257 8.00213C9.80154 7.71578 9.22196 7.54549 8.62624 7.50283C8.03052 7.46016 7.43259 7.54612 6.87301 7.75486C6.31343 7.9636 5.80529 8.29024 5.38305 8.71263L2.88402 11.2117C2.12532 11.9972 1.70551 13.0493 1.715 14.1414C1.72449 15.2334 2.16252 16.2781 2.93476 17.0503C3.70699 17.8225 4.75163 18.2606 5.84369 18.27C6.93575 18.2795 7.98785 17.8597 8.77339 17.101L10.1978 15.6766" stroke="#FF5E5E" stroke-width="1.66602" stroke-linecap="round" stroke-linejoin="round"/>
</g>
<defs>
<clipPath id="clip0_1699_21093">
<rect width="19.9922" height="19.9922" fill="white"/>
</clipPath>
</defs>
</svg>
