<svg width="18" height="18" viewBox="0 0 18 18" fill="none" xmlns="http://www.w3.org/2000/svg">
<g clip-path="url(#clip0_1596_580)">
<path d="M11.2495 1.49976H6.74993C6.33575 1.49976 6 1.83551 6 2.24969V3.74954C6 4.16372 6.33575 4.49947 6.74993 4.49947H11.2495C11.6637 4.49947 11.9994 4.16372 11.9994 3.74954V2.24969C11.9994 1.83551 11.6637 1.49976 11.2495 1.49976Z" stroke="white" stroke-width="1.49986" stroke-linecap="round" stroke-linejoin="round"/>
<path d="M11.9992 2.99976H13.499C13.8968 2.99976 14.2783 3.15778 14.5596 3.43905C14.8408 3.72033 14.9989 4.10183 14.9989 4.49961V14.9986C14.9989 15.3964 14.8408 15.7779 14.5596 16.0592C14.2783 16.3405 13.8968 16.4985 13.499 16.4985H4.49986C4.10207 16.4985 3.72058 16.3405 3.4393 16.0592C3.15802 15.7779 3 15.3964 3 14.9986V4.49961C3 4.10183 3.15802 3.72033 3.4393 3.43905C3.72058 3.15778 4.10207 2.99976 4.49986 2.99976H5.99972" stroke="white" stroke-width="1.49986" stroke-linecap="round" stroke-linejoin="round"/>
<path d="M6.75 10.4991L8.24986 11.999L11.2496 8.99927" stroke="white" stroke-width="1.49986" stroke-linecap="round" stroke-linejoin="round"/>
</g>
<defs>
<clipPath id="clip0_1596_580">
<rect width="17.9983" height="17.9983" fill="white"/>
</clipPath>
</defs>
</svg>
