<svg width="18" height="18" viewBox="0 0 18 18" fill="none" xmlns="http://www.w3.org/2000/svg">
<g clip-path="url(#clip0_1596_570)">
<path d="M8.66894 2.44924C8.70131 2.39045 8.74887 2.34143 8.80664 2.30728C8.86442 2.27314 8.9303 2.25513 8.99741 2.25513C9.06452 2.25513 9.13041 2.27314 9.18818 2.30728C9.24596 2.34143 9.29351 2.39045 9.32588 2.44924L11.5397 6.65185C11.5925 6.74916 11.6661 6.83358 11.7554 6.89904C11.8447 6.9645 11.9474 7.00938 12.0561 7.03045C12.1648 7.05153 12.2768 7.04828 12.384 7.02094C12.4913 6.9936 12.5912 6.94285 12.6766 6.87232L15.884 4.12458C15.9456 4.0745 16.0215 4.04525 16.1007 4.04104C16.18 4.03683 16.2585 4.05787 16.325 4.10115C16.3916 4.14442 16.4427 4.20768 16.471 4.28184C16.4992 4.35599 16.5033 4.43721 16.4825 4.5138L14.3572 12.1976C14.3138 12.3548 14.2203 12.4936 14.0909 12.5929C13.9616 12.6923 13.8033 12.7467 13.6402 12.748H4.35535C4.19212 12.7469 4.03371 12.6925 3.90419 12.5932C3.77466 12.4938 3.68109 12.3549 3.63767 12.1976L1.51312 4.51455C1.49231 4.43796 1.49634 4.35674 1.52462 4.28259C1.55291 4.20843 1.604 4.14517 1.67053 4.1019C1.73706 4.05862 1.81561 4.03758 1.89486 4.04179C1.97412 4.046 2.04999 4.07525 2.11156 4.12533L5.31826 6.87307C5.4036 6.9436 5.5035 6.99435 5.61078 7.02169C5.71806 7.04903 5.83007 7.05228 5.93875 7.0312C6.04744 7.01013 6.15011 6.96525 6.23939 6.89979C6.32868 6.83432 6.40236 6.74991 6.45515 6.6526L8.66894 2.44924Z" stroke="white" stroke-width="1.49986" stroke-linecap="round" stroke-linejoin="round"/>
<path d="M3.75 15.7485H14.249" stroke="white" stroke-width="1.49986" stroke-linecap="round" stroke-linejoin="round"/>
</g>
<defs>
<clipPath id="clip0_1596_570">
<rect width="17.9983" height="17.9983" fill="white"/>
</clipPath>
</defs>
</svg>
