<svg width="20" height="20" viewBox="0 0 20 20" fill="none" xmlns="http://www.w3.org/2000/svg">
<path d="M8.27934 12.9136C8.20496 12.6253 8.05468 12.3622 7.84413 12.1516C7.63357 11.9411 7.37045 11.7908 7.08212 11.7164L1.9708 10.3984C1.88359 10.3736 1.80684 10.3211 1.75219 10.2488C1.69754 10.1765 1.66797 10.0883 1.66797 9.99764C1.66797 9.90699 1.69754 9.81882 1.75219 9.74649C1.80684 9.67417 1.88359 9.62165 1.9708 9.5969L7.08212 8.27804C7.37034 8.20372 7.6334 8.05357 7.84395 7.84317C8.05449 7.63277 8.20483 7.36982 8.27934 7.08164L9.59737 1.97032C9.62187 1.88277 9.67434 1.80564 9.74677 1.7507C9.8192 1.69576 9.90762 1.66602 9.99853 1.66602C10.0894 1.66602 10.1779 1.69576 10.2503 1.7507C10.3227 1.80564 10.3752 1.88277 10.3997 1.97032L11.7169 7.08164C11.7913 7.36997 11.9416 7.6331 12.1521 7.84365C12.3627 8.0542 12.6258 8.20449 12.9141 8.27887L18.0254 9.59607C18.1133 9.62031 18.1908 9.67272 18.2461 9.74526C18.3013 9.8178 18.3312 9.90646 18.3312 9.99764C18.3312 10.0888 18.3013 10.1775 18.2461 10.25C18.1908 10.3226 18.1133 10.375 18.0254 10.3992L12.9141 11.7164C12.6258 11.7908 12.3627 11.9411 12.1521 12.1516C11.9416 12.3622 11.7913 12.6253 11.7169 12.9136L10.3989 18.025C10.3744 18.1125 10.3219 18.1896 10.2495 18.2446C10.177 18.2995 10.0886 18.3293 9.9977 18.3293C9.90679 18.3293 9.81837 18.2995 9.74594 18.2446C9.67351 18.1896 9.62104 18.1125 9.59654 18.025L8.27934 12.9136Z" stroke="#FF5E5E" stroke-width="1.66628" stroke-linecap="round" stroke-linejoin="round"/>
<path d="M16.6641 2.5V5.83257" stroke="#FF5E5E" stroke-width="1.66628" stroke-linecap="round" stroke-linejoin="round"/>
<path d="M18.3287 4.16602H14.9961" stroke="#FF5E5E" stroke-width="1.66628" stroke-linecap="round" stroke-linejoin="round"/>
<path d="M3.33203 14.1641V15.8303" stroke="#FF5E5E" stroke-width="1.66628" stroke-linecap="round" stroke-linejoin="round"/>
<path d="M4.16628 14.9961H2.5" stroke="#FF5E5E" stroke-width="1.66628" stroke-linecap="round" stroke-linejoin="round"/>
</svg>
