<svg width="20" height="20" viewBox="0 0 20 20" fill="none" xmlns="http://www.w3.org/2000/svg">
<path d="M13.3292 16.6626V3.3323C13.3292 2.89037 13.1536 2.46655 12.8412 2.15406C12.5287 1.84157 12.1048 1.66602 11.6629 1.66602H8.33035C7.88842 1.66602 7.46459 1.84157 7.15211 2.15406C6.83962 2.46655 6.66406 2.89037 6.66406 3.3323V16.6626" stroke="#1E2125" stroke-width="1.66628" stroke-linecap="round" stroke-linejoin="round"/>
<path d="M16.6645 4.99805H3.33425C2.41399 4.99805 1.66797 5.74407 1.66797 6.66433V14.9957C1.66797 15.916 2.41399 16.662 3.33425 16.662H16.6645C17.5848 16.662 18.3308 15.916 18.3308 14.9957V6.66433C18.3308 5.74407 17.5848 4.99805 16.6645 4.99805Z" stroke="#1E2125" stroke-width="1.66628" stroke-linecap="round" stroke-linejoin="round"/>
</svg>
