<svg width="18" height="18" viewBox="0 0 18 18" fill="none" xmlns="http://www.w3.org/2000/svg">
<path d="M16.4936 12.6867V14.936C16.4945 15.1449 16.4517 15.3515 16.3681 15.5429C16.2844 15.7342 16.1617 15.9059 16.0078 16.0471C15.854 16.1883 15.6723 16.2957 15.4745 16.3626C15.2767 16.4295 15.0671 16.4544 14.8591 16.4356C12.552 16.1849 10.3357 15.3965 8.38858 14.1338C6.57699 12.9826 5.04108 11.4467 3.88993 9.63513C2.62279 7.67912 1.83423 5.45213 1.58812 3.13458C1.56938 2.92724 1.59402 2.71828 1.66047 2.52098C1.72692 2.32369 1.83372 2.1424 1.97408 1.98864C2.11443 1.83489 2.28526 1.71204 2.47569 1.62793C2.66613 1.54381 2.87199 1.50027 3.08017 1.50007H5.32949C5.69336 1.49649 6.04612 1.62534 6.32202 1.86261C6.59791 2.09988 6.77812 2.42938 6.82904 2.78969C6.92398 3.50952 7.10005 4.2163 7.35389 4.89655C7.45476 5.16492 7.4766 5.45657 7.4168 5.73696C7.357 6.01735 7.21807 6.27472 7.01649 6.47858L6.06427 7.43079C7.13162 9.30789 8.68583 10.8621 10.5629 11.9294L11.5151 10.9772C11.719 10.7756 11.9764 10.6367 12.2568 10.5769C12.5371 10.5171 12.8288 10.539 13.0972 10.6398C13.7774 10.8937 14.4842 11.0697 15.204 11.1647C15.5682 11.2161 15.9009 11.3995 16.1387 11.6801C16.3764 11.9608 16.5028 12.319 16.4936 12.6867Z" stroke="#4A5565" stroke-width="1.49955" stroke-linecap="round" stroke-linejoin="round"/>
</svg>
