<svg width="20" height="20" viewBox="0 0 20 20" fill="none" xmlns="http://www.w3.org/2000/svg">
<path d="M17.8466 9.10018C17.9957 9.03438 18.1223 8.92628 18.2106 8.78925C18.2989 8.65223 18.3451 8.49231 18.3434 8.3293C18.3417 8.1663 18.2923 8.00737 18.2011 7.8722C18.11 7.73703 17.9812 7.63156 17.8308 7.56886L10.6899 4.31628C10.4728 4.21726 10.237 4.16602 9.9984 4.16602C9.7598 4.16602 9.52398 4.21726 9.3069 4.31628L2.16687 7.56553C2.01855 7.63049 1.89237 7.73727 1.80376 7.87281C1.71516 8.00834 1.66797 8.16676 1.66797 8.32869C1.66797 8.49062 1.71516 8.64904 1.80376 8.78457C1.89237 8.92011 2.01855 9.02688 2.16687 9.09185L9.3069 12.3478C9.52398 12.4468 9.7598 12.498 9.9984 12.498C10.237 12.498 10.4728 12.4468 10.6899 12.3478L17.8466 9.10018Z" stroke="#1E2125" stroke-width="1.66628" stroke-linecap="round" stroke-linejoin="round"/>
<path d="M18.3281 8.33203V13.3309" stroke="#1E2125" stroke-width="1.66628" stroke-linecap="round" stroke-linejoin="round"/>
<path d="M5 10.4141V13.3301C5 13.9929 5.52666 14.6287 6.46413 15.0974C7.4016 15.5662 8.67307 15.8295 9.99885 15.8295C11.3246 15.8295 12.5961 15.5662 13.5336 15.0974C14.471 14.6287 14.9977 13.9929 14.9977 13.3301V10.4141" stroke="#1E2125" stroke-width="1.66628" stroke-linecap="round" stroke-linejoin="round"/>
</svg>
