<svg width="20" height="20" viewBox="0 0 20 20" fill="none" xmlns="http://www.w3.org/2000/svg">
<g clip-path="url(#clip0_1825_3578)">
<path d="M12.8927 10.7383L14.1549 17.8416C14.1691 17.9253 14.1573 18.0113 14.1213 18.0881C14.0853 18.1648 14.0266 18.2288 13.9533 18.2714C13.8799 18.314 13.7953 18.3331 13.7107 18.3263C13.6262 18.3195 13.5457 18.287 13.4801 18.2332L10.4975 15.9946C10.3535 15.887 10.1786 15.8289 9.99882 15.8289C9.81909 15.8289 9.64417 15.887 9.50019 15.9946L6.51254 18.2324C6.44699 18.2861 6.36663 18.3185 6.28217 18.3253C6.19772 18.3321 6.11319 18.3131 6.03987 18.2706C5.96654 18.2281 5.90791 18.1643 5.87179 18.0877C5.83566 18.0111 5.82377 17.9252 5.8377 17.8416L7.09907 10.7383" stroke="#1E2125" stroke-width="1.66628" stroke-linecap="round" stroke-linejoin="round"/>
<path d="M9.99885 11.6637C12.7596 11.6637 14.9977 9.42565 14.9977 6.66487C14.9977 3.90408 12.7596 1.66602 9.99885 1.66602C7.23806 1.66602 5 3.90408 5 6.66487C5 9.42565 7.23806 11.6637 9.99885 11.6637Z" stroke="#1E2125" stroke-width="1.66628" stroke-linecap="round" stroke-linejoin="round"/>
</g>
<defs>
<clipPath id="clip0_1825_3578">
<rect width="19.9954" height="19.9954" fill="white"/>
</clipPath>
</defs>
</svg>
