<svg width="20" height="20" viewBox="0 0 20 20" fill="none" xmlns="http://www.w3.org/2000/svg">
<g clip-path="url(#clip0_2170_3)">
<path d="M8.94531 4.23C10.8865 3.99867 12.85 4.40902 14.536 5.39838C16.2221 6.38774 17.538 7.90173 18.2828 9.70917C18.3523 9.89627 18.3523 10.1021 18.2828 10.2892C17.9766 11.0317 17.5718 11.7296 17.0795 12.3642" stroke="#99A1AF" stroke-width="1.66667" stroke-linecap="round" stroke-linejoin="round"/>
<path d="M11.7368 11.7983C11.2653 12.2537 10.6338 12.5057 9.97828 12.5C9.32278 12.4943 8.69575 12.2314 8.23223 11.7679C7.76871 11.3044 7.50579 10.6773 7.50009 10.0218C7.4944 9.36635 7.74638 8.73484 8.20178 8.26334" stroke="#99A1AF" stroke-width="1.66667" stroke-linecap="round" stroke-linejoin="round"/>
<path d="M14.5676 14.5825C13.4621 15.2373 12.2288 15.6467 10.9512 15.7828C9.67361 15.919 8.38168 15.7787 7.16308 15.3716C5.94448 14.9644 4.82772 14.2999 3.88857 13.4231C2.94941 12.5463 2.20985 11.4778 1.72006 10.29C1.65061 10.1029 1.65061 9.89709 1.72006 9.71C2.45892 7.91821 3.75895 6.41437 5.42506 5.42416" stroke="#99A1AF" stroke-width="1.66667" stroke-linecap="round" stroke-linejoin="round"/>
<path d="M1.66797 1.66666L18.3346 18.3333" stroke="#99A1AF" stroke-width="1.66667" stroke-linecap="round" stroke-linejoin="round"/>
</g>
<defs>
<clipPath id="clip0_2170_3">
<rect width="20" height="20" fill="white"/>
</clipPath>
</defs>
</svg>
