<svg width="20" height="20" viewBox="0 0 20 20" fill="none" xmlns="http://www.w3.org/2000/svg">
<path d="M1.71612 9.70495C1.64671 9.89194 1.64671 10.0976 1.71612 10.2846C2.39219 11.9239 3.53977 13.3255 5.01338 14.3118C6.487 15.2981 8.22028 15.8246 9.99348 15.8246C11.7667 15.8246 13.5 15.2981 14.9736 14.3118C16.4472 13.3255 17.5948 11.9239 18.2708 10.2846C18.3403 10.0976 18.3403 9.89194 18.2708 9.70495C17.5948 8.06568 16.4472 6.66406 14.9736 5.67779C13.5 4.69152 11.7667 4.16501 9.99348 4.16501C8.22028 4.16501 6.487 4.69152 5.01338 5.67779C3.53977 6.66406 2.39219 8.06568 1.71612 9.70495Z" stroke="#99A1AF" stroke-width="1.6658" stroke-linecap="round" stroke-linejoin="round"/>
<path d="M9.99479 12.4935C11.3748 12.4935 12.4935 11.3748 12.4935 9.99479C12.4935 8.6148 11.3748 7.49609 9.99479 7.49609C8.6148 7.49609 7.49609 8.6148 7.49609 9.99479C7.49609 11.3748 8.6148 12.4935 9.99479 12.4935Z" stroke="#99A1AF" stroke-width="1.6658" stroke-linecap="round" stroke-linejoin="round"/>
</svg>
